<svg width="55" height="56" viewBox="0 0 55 56" fill="none" xmlns="http://www.w3.org/2000/svg">
<rect width="55" height="56" rx="27.5" fill="#FFE8D9"/>
<path fill-rule="evenodd" clip-rule="evenodd" d="M20.7806 16.219C21.9385 16.1266 23.0376 15.6711 23.9216 14.9176C24.92 14.0673 26.1886 13.6003 27.5 13.6003C28.8114 13.6003 30.08 14.0673 31.0784 14.9176C31.9624 15.6711 33.0615 16.1266 34.2194 16.219C35.527 16.3235 36.7546 16.8903 37.6821 17.8179C38.6097 18.7454 39.1765 19.973 39.281 21.2806C39.3728 22.438 39.8282 23.5378 40.5824 24.4216C41.4327 25.42 41.8997 26.6886 41.8997 28C41.8997 29.3114 41.4327 30.58 40.5824 31.5784C39.8289 32.4624 39.3734 33.5615 39.281 34.7194C39.1765 36.027 38.6097 37.2546 37.6821 38.1821C36.7546 39.1097 35.527 39.6765 34.2194 39.781C33.0615 39.8734 31.9624 40.3289 31.0784 41.0824C30.08 41.9327 28.8114 42.3997 27.5 42.3997C26.1886 42.3997 24.92 41.9327 23.9216 41.0824C23.0376 40.3289 21.9385 39.8734 20.7806 39.781C19.473 39.6765 18.2454 39.1097 17.3179 38.1821C16.3903 37.2546 15.8235 36.027 15.719 34.7194C15.6266 33.5615 15.1711 32.4624 14.4176 31.5784C13.5673 30.58 13.1003 29.3114 13.1003 28C13.1003 26.6886 13.5673 25.42 14.4176 24.4216C15.1711 23.5376 15.6266 22.4385 15.719 21.2806C15.8235 19.973 16.3903 18.7454 17.3179 17.8179C18.2454 16.8903 19.473 16.3235 20.7806 16.219ZM34.1726 25.6726C34.5005 25.3331 34.6819 24.8784 34.6778 24.4065C34.6737 23.9345 34.4844 23.4831 34.1507 23.1493C33.8169 22.8156 33.3655 22.6263 32.8935 22.6222C32.4216 22.6181 31.9669 22.7995 31.6274 23.1274L25.7 29.0548L23.3726 26.7274C23.0331 26.3995 22.5784 26.2181 22.1065 26.2222C21.6345 26.2263 21.1831 26.4156 20.8493 26.7493C20.5156 27.0831 20.3263 27.5345 20.3222 28.0065C20.3181 28.4784 20.4995 28.9331 20.8274 29.2726L24.4274 32.8726C24.7649 33.21 25.2227 33.3996 25.7 33.3996C26.1773 33.3996 26.635 33.21 26.9726 32.8726L34.1726 25.6726Z" fill="#FF6B1A"/>
</svg>
