<svg width="55" height="56" viewBox="0 0 55 56" fill="none" xmlns="http://www.w3.org/2000/svg">
<rect width="55" height="56" rx="16" fill="#FFE8D9"/>
<path d="M14 22L25.835 29.89C26.328 30.2189 26.9074 30.3944 27.5 30.3944C28.0926 30.3944 28.672 30.2189 29.165 29.89L41 22M17 38.5H38C38.7956 38.5 39.5587 38.1839 40.1213 37.6213C40.6839 37.0587 41 36.2956 41 35.5V20.5C41 19.7044 40.6839 18.9413 40.1213 18.3787C39.5587 17.8161 38.7956 17.5 38 17.5H17C16.2044 17.5 15.4413 17.8161 14.8787 18.3787C14.3161 18.9413 14 19.7044 14 20.5V35.5C14 36.2956 14.3161 37.0587 14.8787 37.6213C15.4413 38.1839 16.2044 38.5 17 38.5Z" stroke="#FF6B1A" stroke-width="2" stroke-linecap="round" stroke-linejoin="round"/>
</svg>
